<?xml version="1.0" encoding="UTF-8" standalone="no"?>
<!-- Created with Inkscape (http://www.inkscape.org/) -->

<svg
   width="512"
   height="512"
   viewBox="0 0 135.46667 135.46666"
   version="1.1"
   id="svg960"
   inkscape:version="1.2 (dc2aeda, 2022-05-15)"
   sodipodi:docname="meiki_icon.svg"
   xmlns:inkscape="http://www.inkscape.org/namespaces/inkscape"
   xmlns:sodipodi="http://sodipodi.sourceforge.net/DTD/sodipodi-0.dtd"
   xmlns="http://www.w3.org/2000/svg"
   xmlns:svg="http://www.w3.org/2000/svg">
  <sodipodi:namedview
     id="namedview962"
     pagecolor="#ffffff"
     bordercolor="#666666"
     borderopacity="1.0"
     inkscape:pageshadow="2"
     inkscape:pageopacity="0.0"
     inkscape:pagecheckerboard="0"
     inkscape:document-units="mm"
     showgrid="true"
     units="px"
     objecttolerance="20"
     guidetolerance="20"
     gridtolerance="10"
     inkscape:zoom="0.71281675"
     inkscape:cx="552.03529"
     inkscape:cy="212.53709"
     inkscape:window-width="1800"
     inkscape:window-height="1027"
     inkscape:window-x="0"
     inkscape:window-y="25"
     inkscape:window-maximized="0"
     inkscape:current-layer="g351"
     inkscape:showpageshadow="2"
     inkscape:deskcolor="#d1d1d1">
    <inkscape:grid
       type="xygrid"
       id="grid1021"
       spacingx="4.2068749"
       spacingy="4.2333333"
       originx="0"
       originy="0" />
  </sodipodi:namedview>
  <defs
     id="defs957" />
  <g
     inkscape:label="Layer 1"
     inkscape:groupmode="layer"
     id="layer1">
    <g
       id="g252"
       transform="translate(-2.433819,-1.2595241)">
      <g
         id="g351">
        <g
           id="g367"
           transform="matrix(1.1232714,-0.42220998,0.42220998,1.1232714,-38.872735,23.737368)">
          <circle
             id="path2175"
             style="fill:#b380ff;stroke:#000000;stroke-width:1.05833;stroke-miterlimit:4;stroke-dasharray:none"
             cx="99.872154"
             cy="130.58347"
             r="0.052020039" />
          <circle
             id="path2177"
             style="fill:#b380ff;stroke:#000000;stroke-width:1.05833;stroke-miterlimit:4;stroke-dasharray:none"
             cx="99.872154"
             cy="130.58347"
             r="0.052020039" />
          <path
             style="fill:#999999;fill-opacity:0.643137;stroke-width:1.05833;stroke-miterlimit:4;stroke-dasharray:none"
             d="m 83.544886,127.94946 -3.64684,-3.68135 2.4202,-0.69833 c 1.33145,-0.38287 3.51264,-0.99987 4.84707,-1.37111 l 2.42689,-0.67279 -1.17759,5.04585 c -0.64765,2.77521 -1.18777,5.04883 -1.20023,5.05247 -0.0124,0.004 -1.66376,-1.65 -3.6695,-3.67474 z"
             id="path3720" />
          <path
             style="fill:#ff80e5;fill-opacity:0.643015;stroke-width:1.05833;stroke-miterlimit:4;stroke-dasharray:none"
             d="m 43.620676,23.757553 -3.08649,-10.911139 12.14409,-3.4352611 12.14411,-3.435264 3.08648,10.9111391 3.08649,10.911141 -12.1441,3.435264 -12.14409,3.435261 z"
             id="path2819" />
          <path
             style="fill:#ffe6d5;fill-opacity:0.643015;stroke-width:1.05833;stroke-miterlimit:4;stroke-dasharray:none"
             d="m 74.554326,118.66463 c -2.96382,-2.97556 -5.39868,-5.42439 -5.41083,-5.44186 -0.0145,-0.0218 0.40781,-0.87433 1.32011,-2.66251 l 1.34218,-2.63076 2.6406,1.61299 2.6406,1.61299 1.23533,-2.41272 c 0.80039,-1.56326 1.30627,-2.52286 1.43685,-2.72555 0.11081,-0.17205 0.2077,-0.31458 0.21525,-0.31672 0.008,-0.002 1.18198,0.70786 2.60982,1.57777 l 2.59608,1.58165 1.34571,-2.62702 c 0.74015,-1.44486 1.36168,-2.66543 1.38119,-2.71234 l 0.0354,-0.0853 0.21693,0.11524 c 0.56871,0.30208 3.10866,1.78762 4.31121,2.52147 l 0.57866,0.35315 -1.76463,7.46419 -1.76465,7.4642 -4.78881,1.35983 -4.78878,1.35982 z"
             id="path3546" />
          <path
             style="fill:#ff7f2a;fill-opacity:0.643015;stroke-width:1.05833;stroke-miterlimit:4;stroke-dasharray:none"
             d="m 74.010656,69.36845 -11.11425,-39.27929 3.97379,-1.124086 3.97381,-1.124092 11.11098,39.278751 11.11098,39.278747 -2.54063,-1.50218 c -1.39734,-0.82621 -2.57516,-1.49242 -2.6174,-1.48047 -0.0422,0.0119 -0.68572,1.19403 -1.42999,2.62683 l -1.35321,2.60513 z"
             id="path3106" />
          <path
             style="fill:#ff9955;fill-opacity:0.643015;stroke-width:1.05833;stroke-miterlimit:4;stroke-dasharray:none"
             d="m 65.915156,71.660635 -11.11193,-39.282115 4.04803,-1.145086 4.04804,-1.145089 11.11136,39.280104 11.11136,39.280111 -2.49601,-1.51282 c -1.37281,-0.83207 -2.55798,-1.49531 -2.63367,-1.4739 -0.0757,0.0214 -0.77388,1.21839 -1.55145,2.65993 l -1.4138,2.62098 z"
             id="path3317" />
          <path
             style="fill:#ffb380;fill-opacity:0.643015;stroke-width:1.05833;stroke-miterlimit:4;stroke-dasharray:none"
             d="m 57.821286,73.958551 -11.04721,-39.05331 4.04804,-1.145089 4.04803,-1.145089 11.04721,39.05331 11.04721,39.053317 -2.61061,-1.50116 -2.61063,-1.50117 -1.43743,2.64627 -1.43741,2.64624 z"
             id="path3067" />
          <path
             style="fill:none;stroke:#000000;stroke-width:1.05833;stroke-linecap:butt;stroke-linejoin:miter;stroke-miterlimit:4;stroke-dasharray:none;stroke-opacity:1"
             d="m 40.534186,12.846414 28.3957,100.382496 18.31708,18.38702 5.97112,-25.25755 -28.3957,-100.3824911 z"
             id="path2653" />
          <path
             style="fill:none;stroke:#000000;stroke-width:1.05833;stroke-linecap:butt;stroke-linejoin:miter;stroke-miterlimit:4;stroke-dasharray:none;stroke-opacity:1"
             d="m 46.707166,34.668694 24.28819,-6.870525"
             id="path2655" />
          <path
             style="fill:#b7c4c8;stroke:#000000;stroke-width:1.05833;stroke-linecap:butt;stroke-linejoin:miter;stroke-miterlimit:4;stroke-dasharray:none;stroke-opacity:1"
             d="m 79.897846,124.26742 9.69416,-2.74223"
             id="path2657" />
          <path
             style="fill:none;stroke:#000000;stroke-width:1.05833;stroke-linecap:butt;stroke-linejoin:miter;stroke-miterlimit:4;stroke-dasharray:none;stroke-opacity:1"
             d="m 68.929886,113.22891 2.81344,-5.50955 5.28263,3.21938 2.81344,-5.50955 5.28262,3.21937 2.81344,-5.50955 5.28263,3.21937"
             id="path2659" />
          <path
             style="fill:#ffaaee;stroke:#000000;stroke-width:1.05833;stroke-linecap:butt;stroke-linejoin:miter;stroke-miterlimit:4;stroke-dasharray:none;stroke-opacity:1"
             d="M 77.025956,110.93874 54.803226,32.378519"
             id="path2661" />
          <path
             style="fill:none;stroke:#000000;stroke-width:1.05833;stroke-linecap:butt;stroke-linejoin:miter;stroke-miterlimit:4;stroke-dasharray:none;stroke-opacity:1"
             d="M 85.122016,108.64856 62.899296,30.088344"
             id="path2663" />
        </g>
      </g>
    </g>
  </g>
</svg>
